<?xml version="1.0" encoding="UTF-8"?><svg id="Layer_2" xmlns="http://www.w3.org/2000/svg" viewBox="0 0 234 216.5"><g id="Layer_10"><path d="M220.35,70.52c0-.94-.08-1.89-.28-2.85-.26-1.25-6.42-30.82-14.78-52.06l-1.41-3.58-.06-.14c-2.38-5.56-9.35-10.07-16.23-10.49-.05,0-1.35-.08-8.55-.41C162,.24,148.53,.12,139.62,.05c-7.45-.06-15.06-.06-22.62,0-7.56-.06-15.17-.06-22.62,0-8.91,.08-22.37,.19-39.44,.96-7.2,.32-8.49,.4-8.55,.41-6.88,.42-13.85,4.93-16.23,10.49l-1.46,3.71c-8.35,21.24-14.52,50.81-14.78,52.06-.2,.95-.29,1.91-.28,2.85-7.56,.19-13.65,6.38-13.65,13.98v87c0,6.33,4.22,11.68,10,13.41v22.59c0,4.97,4.03,9,9,9h17c4.97,0,9-4.03,9-9v-22H189v22c0,4.97,4.03,9,9,9h17c4.97,0,9-4.03,9-9v-22.59c5.78-1.73,10-7.08,10-13.41V84.5c0-7.6-6.09-13.79-13.65-13.98Zm-196.63-.82c.06-.3,6.25-29.99,14.29-50.43l1.37-3.49c.83-1.84,4.38-4.19,7.62-4.39,.07,0,1.41-.08,8.39-.4,16.88-.76,30.24-.87,39.07-.95,7.35-.06,14.85-.06,22.3,0,.15,0,.31,0,.46,0,7.45-.06,14.96-.06,22.3,0,8.84,.07,22.19,.19,39.07,.95,6.97,.31,8.32,.39,8.38,.4,3.24,.2,6.79,2.55,7.63,4.39l1.37,3.49c8.04,20.44,14.23,50.13,14.29,50.43,.06,.28,.07,.55,.06,.8H23.66c0-.25,0-.52,.06-.8Zm200.48,45.64c-1.14,3.02-20.63,18.02-48.21,27.53-10.99,3.79-20.65,5.69-28.88,5.69-5,0-9.48-.7-13.4-2.11-6.25-2.24-11.95-5.89-17-10.84-4.9,4.67-10.41,8.14-16.42,10.3-3.92,1.41-8.4,2.11-13.4,2.11-8.23,0-17.89-1.9-28.88-5.7-27.58-9.51-47.07-24.51-48.21-27.53-.16-.43-.08-.74,.03-.92,.12-.2,.31-.35,.54-.41,.7-.18,1.62,.33,4.45,1.97,6.65,3.88,20.48,11.93,36.11,8.88,7.83-1.54,12.72-5.21,17.45-8.75,4.98-3.74,9.69-7.26,17.28-8,10.04-.97,20.69,3.57,31.64,13.48,10.75-9.53,21.18-13.89,31.05-12.94,7.59,.73,12.3,4.26,17.28,8,4.73,3.55,9.62,7.21,17.45,8.75,15.64,3.06,29.47-5,36.11-8.88,2.82-1.65,3.75-2.16,4.44-1.97,.23,.06,.42,.21,.54,.41,.1,.18,.19,.49,.03,.92Z"/></g></svg>